# xmcd
#
# Track frame offsets:
# 150
# 15735
# 37388
# 56782
# 76528
# 84268
# 103084
# 122056
# 138583
# 158110
# 180466
# 201713
# 235196
#
# Disc length: 3310 seconds
#
# Revision: 0
# Processed by: cddbd v1.5.1PL0 Copyright (c) Steve Scherf et al.
# Submitted via: Audion 2.5.0 (http://www.panic.com/audion/)
#
DISCID=ae0cec0d
DTITLE=Hard Rock - Hard Rock
DYEAR=1900
DGENRE=
TTITLE0=Hard Rock 01
TTITLE1=Hard Rock 02
TTITLE2=Hard Rock 03
TTITLE3=Hard Rock 04
TTITLE4=Hard Rock 05
TTITLE5=Hard Rock 06
TTITLE6=Hard Rock 07
TTITLE7=Hard Rock 08
TTITLE8=Hard Rock 09
TTITLE9=Hard Rock 10
TTITLE10=Hard Rock 11
TTITLE11=Hard Rock 12
TTITLE12=Hard Rock 13
EXTD=
EXTT0=
EXTT1=
EXTT2=
EXTT3=
EXTT4=
EXTT5=
EXTT6=
EXTT7=
EXTT8=
EXTT9=
EXTT10=
EXTT11=
EXTT12=
PLAYORDER=
